PathFileType	4	(X/Y/Z)	UF3_GaitTrial_48\Trial48_markers.trc
DataRate	CameraRate	NumFrames	NumMarkers	Units	OrigDataRate	OrigDataStartFrame	OrigNumFrames
100.000000	100.000000	4	37	M	100.000000	4500	6000
Frame#	Time	L_Midfoot_Superior			Neck			L_Toe			R_Toe			R_Heel			L_Heel			R_Elbow			R_Shoulder			L_Shank_Superior			L_Shoulder			R_Shank_Lateral			L_Patella			R_Midfoot_Lateral			R_Wrist			L_Shank_Inferior			L_Thigh_Inferior			L_Elbow			L_Wrist			L_Thigh_Superior			R_Midfoot_Superior			L_Thigh_Lateral			L_Shank_Lateral			R_Shank_Superior			Sternum			L_Midfoot_Lateral			R_Thigh_Superior			R_Thigh_Lateral			L_Asis			R_Shank_Inferior			R_Patella			R_Thigh_Inferior			R_Asis			Sacral			*33			*34			*35			*36			
		X1	Y1	Z1	X2	Y2	Z2	X3	Y3	Z3	X4	Y4	Z4	X5	Y5	Z5	X6	Y6	Z6	X7	Y7	Z7	X8	Y8	Z8	X9	Y9	Z9	X10	Y10	Z10	X11	Y11	Z11	X12	Y12	Z12	X13	Y13	Z13	X14	Y14	Z14	X15	Y15	Z15	X16	Y16	Z16	X17	Y17	Z17	X18	Y18	Z18	X19	Y19	Z19	X20	Y20	Z20	X21	Y21	Z21	X22	Y22	Z22	X23	Y23	Z23	X24	Y24	Z24	X25	Y25	Z25	X26	Y26	Z26	X27	Y27	Z27	X28	Y28	Z28	X29	Y29	Z29	X30	Y30	Z30	X31	Y31	Z31	X32	Y32	Z32	X33	Y33	Z33	X34	Y34	Z34	X35	Y35	Z35	X36	Y36	Z36	X37	Y37	Z37

4501	  45.000	    0.83899365234375	    0.09009479522705	    0.40860491943359	    0.59696899414062	    1.43354748535156	    0.48586004638672	    0.95822052001953	    0.04708710098267	    0.39128649902344	    0.29103198242188	    0.01682604980469	    0.58053436279297	    0.28059057617187	    0.31030062866211	    0.54630139160156	    0.66928375244141	    0.03401835250854	    0.44587994384766	    0.67583105468750	    1.04826367187500	    0.75215649414063	    0.66920880126953	    1.39835021972656	    0.64510705566406	    0.84473809814453	    0.38248345947266	    0.37938955688477	    0.66010015869141	    1.40469311523437	    0.32818515014648	    0.52954675292969	    0.40054058837891	    0.65426153564453	    0.88428179931641	    0.50162747192383	    0.39565603637695	    0.26556454467773	    0.22771514892578	    0.60930505371094	    0.87473138427734	    0.88651007080078	    0.76597363281250	    0.81488916015625	    0.22910966491699	    0.40061709594727	    0.85608282470703	    0.62183880615234	    0.36236788940430	    0.57252520751953	    1.07658203125000	    0.22989526367187	    0.63296734619141	    0.82779522705078	    0.19565109252930	    0.83161706542969	    0.74549536132812	    0.34012982177734	    0.33461618041992	    0.14065419006348	    0.57867834472656	    0.75864483642578	    0.64711914062500	    0.31139801025391	    0.75181274414063	    0.32581268310547	    0.33328851318359	    0.61797576904297	    0.35413269042969	    0.61545507812500	    0.75681610107422	    1.34573803710938	    0.47964099121094	    0.74422290039062	    0.02715161705017	    0.37694644165039	    0.76356933593750	    0.67435766601562	    0.62329077148438	    0.66954895019531	    0.61858489990234	    0.66244421386719	    0.73422247314453	    0.94296258544922	    0.34772253417969	    0.46193518066406	    0.26778833007813	    0.59600427246094	    0.73837432861328	    0.42580560302734	    0.60591357421875	    0.76153320312500	    0.56041503906250	    0.61305187988281	    0.72214971923828	    0.93862988281250	    0.60777447509766	    0.54999676513672	    0.95962103271484	    0.47774258422852	                 NaN	                 NaN	                 NaN	                 NaN	                 NaN	                 NaN	                 NaN	                 NaN	                 NaN	                 NaN	                 NaN	                 NaN
4502	  45.010	    0.82505969238281	    0.08993846130371	    0.40850765991211	    0.59611614990234	    1.43536132812500	    0.48475177001953	    0.94431463623047	    0.04646652984619	    0.39108248901367	    0.31200808715820	    0.02120373916626	    0.57715655517578	    0.28881079101563	    0.31427615356445	    0.54829736328125	    0.65523187255859	    0.03421505737305	    0.44573196411133	    0.67120275878906	    1.04969726562500	    0.75075280761719	    0.66689904785156	    1.40021875000000	    0.64469506835938	    0.83579339599609	    0.38121325683594	    0.37919567871094	    0.66060021972656	    1.40653137207031	    0.32776705932617	    0.54368487548828	    0.40392413330078	    0.65387133789063	    0.87723974609375	    0.49945123291016	    0.39572351074219	    0.27861145019531	    0.23030746459961	    0.61001287841797	    0.86738702392578	    0.88472467041016	    0.76616601562500	    0.80344561767578	    0.22826145935059	    0.40049664306641	    0.85194403076172	    0.61983917236328	    0.36324258422852	    0.57646160888672	    1.07782653808594	    0.22778607177734	    0.64150793457031	    0.83016705322266	    0.19374353027344	    0.82930706787109	    0.74411834716797	    0.34055715942383	    0.34990567016602	    0.14664804077148	    0.57635711669922	    0.75441607666016	    0.64720361328125	    0.31137576293945	    0.74238653564453	    0.32558044433594	    0.33287796020508	    0.63146820068359	    0.35677920532227	    0.61469830322266	    0.75594464111328	    1.34755969238281	    0.48006149291992	    0.73019213867188	    0.02721458053589	    0.37685348510742	    0.76905352783203	    0.67867108154297	    0.62201190185547	    0.67641973876953	    0.61997991943359	    0.66087561035156	    0.73478442382812	    0.94487872314453	    0.34769778442383	    0.47518493652344	    0.27175320434570	    0.59569781494141	    0.75186468505859	    0.42922952270508	    0.60446716308594	    0.77067645263672	    0.56478387451172	    0.61190991210938	    0.72061328125000	    0.94100939941406	    0.60759533691406	    0.54962133789062	    0.96156005859375	    0.47575653076172	                 NaN	                 NaN	                 NaN	                 NaN	                 NaN	                 NaN	                 NaN	                 NaN	                 NaN	                 NaN	                 NaN	                 NaN
4503	  45.020	    0.81115850830078	    0.08981002807617	    0.40837036132812	    0.59512408447266	    1.43730700683594	    0.48375335693359	    0.93039385986328	    0.04598413848877	    0.39078607177734	    0.33845510864258	    0.02483718299866	    0.57357629394531	    0.29550128173828	    0.31622363281250	    0.55061486816406	    0.64122698974609	    0.03441954040527	    0.44558184814453	    0.66637054443359	    1.05130993652344	    0.74945831298828	    0.66427972412109	    1.40210656738281	    0.64444317626953	    0.82631335449219	    0.38008465576172	    0.37912741088867	    0.66087304687500	    1.40862756347656	    0.32747964477539	    0.55719464111328	    0.40754626464844	    0.65320349121094	    0.86963873291016	    0.49775784301758	    0.39578704833984	    0.29372045898437	    0.23086546325684	    0.61118743896484	    0.85975207519531	    0.88326721191406	    0.76648675537109	    0.79163494873047	    0.22743682861328	    0.40051608276367	    0.84706054687500	    0.61859722900391	    0.36429043579102	    0.58041229248047	    1.07935363769531	    0.22581129455566	    0.65025958251953	    0.83296002197266	    0.19203700256348	    0.82632196044922	    0.74293103027344	    0.34189938354492	    0.36900549316406	    0.15284783935547	    0.57383447265625	    0.75000970458984	    0.64737744140625	    0.31150677490234	    0.73302459716797	    0.32518881225586	    0.33268429565430	    0.64475701904297	    0.35978479003906	    0.61385791015625	    0.75484307861328	    1.34956640625000	    0.48061245727539	    0.71615307617188	    0.02724719238281	    0.37682073974609	    0.77411505126953	    0.68329785156250	    0.62130853271484	    0.68279888916016	    0.62242175292969	    0.65875067138672	    0.73493859863281	    0.94673327636719	    0.34785403442383	    0.48810003662109	    0.27595663452148	    0.59433599853516	    0.76518908691406	    0.43360815429687	    0.60435510253906	    0.77951757812500	    0.56981091308594	    0.61137487792969	    0.71916595458984	    0.94355682373047	    0.60740704345703	    0.54889770507812	    0.96379803466797	    0.47341302490234	                 NaN	                 NaN	                 NaN	                 NaN	                 NaN	                 NaN	                 NaN	                 NaN	                 NaN	                 NaN	                 NaN	                 NaN
4504	  45.030	    0.79720208740234	    0.08971160125732	    0.40828225708008	    0.59393127441406	    1.43939794921875	    0.48278399658203	    0.91640399169922	    0.04547027206421	    0.39058728027344	    0.36715713500977	    0.02798933601379	    0.57131365966797	    0.30306231689453	    0.31579370117187	    0.55195733642578	    0.62721044921875	    0.03454049301147	    0.44553610229492	    0.66121014404297	    1.05303808593750	    0.74829095458984	    0.66140972900391	    1.40418078613281	    0.64425842285156	    0.81644323730469	    0.37886724853516	    0.37915917968750	    0.66105059814453	    1.41099694824219	    0.32724612426758	    0.57074310302734	    0.41109530639648	    0.65192480468750	    0.86150671386719	    0.49593466186523	    0.39567675781250	    0.30981408691406	    0.23027282714844	    0.61178045654297	    0.85184204101562	    0.88210235595703	    0.76681915283203	    0.77964831542969	    0.22673333740234	    0.40038668823242	    0.84152520751953	    0.61772167968750	    0.36495816040039	    0.58434631347656	    1.08114892578125	    0.22389807128906	    0.65922015380859	    0.83609893798828	    0.19045622253418	    0.82302630615234	    0.74196356201172	    0.34378103637695	    0.38852819824219	    0.15783413696289	    0.57124121093750	    0.74590087890625	    0.64789086914062	    0.31133090209961	    0.72299792480469	    0.32480731201172	    0.33255178833008	    0.65855114746094	    0.36331210327148	    0.61292346191406	    0.75361035156250	    1.35179553222656	    0.48122790527344	    0.70216174316406	    0.02741695594788	    0.37675595092773	    0.77934948730469	    0.68893719482422	    0.62009045410156	    0.68916528320312	    0.62535772705078	    0.65780139160156	    0.73512811279297	    0.94862207031250	    0.34778897094727	    0.50187091064453	    0.28000155639648	    0.59307922363281	    0.77809741210937	    0.43878793334961	    0.60451721191406	    0.78801690673828	    0.57546258544922	    0.61126202392578	    0.71763262939453	    0.94627673339844	    0.60715179443359	    0.54845788574219	    0.96592993164063	    0.47185342407227	                 NaN	                 NaN	                 NaN	                 NaN	                 NaN	                 NaN	                 NaN	                 NaN	                 NaN	                 NaN	                 NaN	                 NaN
